# xmcd CD database file
#
# Track frame offsets:
#	150
#	25700
#	45610
#	63987
#	81570
#	98597
#	120735
#	137652
#	159600
#	179542
#	197705
#	213912
#
# Disc length: 3138 seconds
#
# Revision: 0
# Processed by: cddbd v1.5PL3 Copyright (c) Steve Scherf et al.
# Submitted via: CDex 1.51
#
DISCID=a30c400c
DTITLE=少女隊 - P-CAN
DYEAR=1900
DGENRE=J-Pop
TTITLE0=Break away
TTITLE1=Merry Christmas In The Kiss
TTITLE2=OK! It's Good
TTITLE3=Don't Worry
TTITLE4=Sakasama
TTITLE5=Take The Free
TTITLE6=Steppin' Club
TTITLE7=Hurry Up!
TTITLE8=From Santa Claus Village
TTITLE9=Next Chance
TTITLE10=Kiss The Paradise
TTITLE11=Can't Tkake My Eyes Off Of You
EXTD=
EXTT0=
EXTT1=
EXTT2=
EXTT3=
EXTT4=
EXTT5=
EXTT6=
EXTT7=
EXTT8=
EXTT9=
EXTT10=
EXTT11=
PLAYORDER=
